<svg width="312" height="175" viewBox="0 0 312 175" fill="none" xmlns="http://www.w3.org/2000/svg">
<path d="M2.94922 55V26.3086H12.4805C14.7331 26.3086 16.6602 26.6016 18.2617 27.1875C19.8633 27.7604 21.1263 28.6979 22.0508 30C22.9883 31.3021 23.457 32.9362 23.457 34.9023C23.457 36.2695 23.2812 37.487 22.9297 38.5547C22.5781 39.6094 21.9987 40.5729 21.1914 41.4453C20.3841 42.3047 19.2448 42.9688 17.7734 43.4375C16.3151 43.9062 14.5508 44.1406 12.4805 44.1406C10.7096 44.1406 9.27083 44.0885 8.16406 43.9844V55H2.94922ZM11.9141 40.3125C12.9948 40.3125 13.9323 40.2083 14.7266 40C15.5339 39.7917 16.1589 39.5247 16.6016 39.1992C17.0573 38.8737 17.4154 38.4701 17.6758 37.9883C17.9492 37.5065 18.125 37.0443 18.2031 36.6016C18.2943 36.1458 18.3398 35.638 18.3398 35.0781C18.3398 33.5026 17.832 32.3047 16.8164 31.4844C15.8008 30.6641 14.3685 30.2539 12.5195 30.2539H8.16406V40.2734C8.32031 40.2995 9.57031 40.3125 11.9141 40.3125ZM39.9023 55.4102C35.7227 55.4102 32.4089 54.0951 29.9609 51.4648C27.513 48.8346 26.2891 45.2018 26.2891 40.5664C26.2891 36.1654 27.5651 32.6367 30.1172 29.9805C32.6823 27.3112 36.0352 25.9766 40.1758 25.9766C43.5221 25.9766 46.3542 26.7513 48.6719 28.3008L47.0117 32.3047C44.7852 30.9375 42.5456 30.2539 40.293 30.2539C37.6628 30.2539 35.5794 31.2044 34.043 33.1055C32.5195 34.9935 31.7578 37.5326 31.7578 40.7227C31.7578 44.0299 32.4935 46.5885 33.9648 48.3984C35.4492 50.2083 37.5586 51.1133 40.293 51.1133C42.6888 51.1133 45.0651 50.5143 47.4219 49.3164L48.125 53.457C45.9375 54.7591 43.1966 55.4102 39.9023 55.4102ZM58.3789 55V30.625H50.0391V26.3867H71.9922V30.625H63.6914V55H58.3789ZM2.94922 106V77.3086H13.5547C15 77.3086 16.25 77.3737 17.3047 77.5039C18.3724 77.6341 19.3815 77.875 20.332 78.2266C21.2956 78.5651 22.0703 79.0273 22.6562 79.6133C23.2552 80.1992 23.724 80.9674 24.0625 81.918C24.4141 82.8555 24.5898 83.9688 24.5898 85.2578C24.5898 89.0599 22.8646 91.5599 19.4141 92.7578C20.1172 93.5521 20.9896 95.0234 22.0312 97.1719L26.2891 106H20.5078L17.168 98.5195C15.9049 95.8372 15.1237 94.2487 14.8242 93.7539C14.6029 93.7409 13.8672 93.7344 12.6172 93.7344L8.18359 93.6953V106H2.94922ZM14.0234 89.9062C16.0547 89.9062 17.513 89.5482 18.3984 88.832C19.2839 88.1029 19.7266 86.9375 19.7266 85.3359C19.7266 83.9297 19.2773 82.8945 18.3789 82.2305C17.4805 81.5664 16.1068 81.2344 14.2578 81.2344H8.18359V89.8867C8.37891 89.8867 9.34896 89.8932 11.0938 89.9062C12.8385 89.9062 13.8151 89.9062 14.0234 89.9062ZM36.7578 99.3789C38.1771 101.189 40.2734 102.094 43.0469 102.094C45.8203 102.094 47.9102 101.195 49.3164 99.3984C50.7357 97.5885 51.4453 95.0365 51.4453 91.7422C51.4453 88.4089 50.7357 85.8242 49.3164 83.9883C47.9102 82.1523 45.8268 81.2344 43.0664 81.2344C40.293 81.2344 38.1901 82.1589 36.7578 84.0078C35.3385 85.8438 34.6289 88.4219 34.6289 91.7422C34.6289 95.0234 35.3385 97.569 36.7578 99.3789ZM43.0273 106.41C38.7174 106.41 35.3125 105.108 32.8125 102.504C30.3255 99.8867 29.082 96.2799 29.082 91.6836C29.082 87.0612 30.332 83.4544 32.832 80.8633C35.332 78.2721 38.737 76.9766 43.0469 76.9766C47.3568 76.9766 50.7552 78.2786 53.2422 80.8828C55.7292 83.474 56.9727 87.0807 56.9727 91.7031C56.9727 96.2734 55.7227 99.8672 53.2227 102.484C50.7227 105.102 47.3242 106.41 43.0273 106.41ZM73.1641 106.41C69.4141 106.41 66.569 105.479 64.6289 103.617C62.6888 101.742 61.7188 99.1055 61.7188 95.707V77.3867H67.0312V95.2578C67.0312 97.6406 67.513 99.3789 68.4766 100.473C69.4531 101.566 71.0482 102.113 73.2617 102.113C75.4362 102.113 77.0117 101.566 77.9883 100.473C78.9648 99.3659 79.4531 97.6211 79.4531 95.2383V77.3867H84.7461V95.7461C84.7461 99.1185 83.7565 101.742 81.7773 103.617C79.7982 105.479 76.9271 106.41 73.1641 106.41ZM96.1914 106V81.625H87.8516V77.3867H109.805V81.625H101.504V106H96.1914ZM112.891 106V77.3867H130.234L130.02 81.5859H118.184V88.9688H129.434V93.168H118.184V101.781H130.449L130.273 106H112.891ZM2.94922 157V128.309H12.4805C14.7331 128.309 16.6602 128.602 18.2617 129.188C19.8633 129.76 21.1263 130.698 22.0508 132C22.9883 133.302 23.457 134.936 23.457 136.902C23.457 138.27 23.2812 139.487 22.9297 140.555C22.5781 141.609 21.9987 142.573 21.1914 143.445C20.3841 144.305 19.2448 144.969 17.7734 145.438C16.3151 145.906 14.5508 146.141 12.4805 146.141C10.7096 146.141 9.27083 146.089 8.16406 145.984V157H2.94922ZM11.9141 142.312C12.9948 142.312 13.9323 142.208 14.7266 142C15.5339 141.792 16.1589 141.525 16.6016 141.199C17.0573 140.874 17.4154 140.47 17.6758 139.988C17.9492 139.507 18.125 139.044 18.2031 138.602C18.2943 138.146 18.3398 137.638 18.3398 137.078C18.3398 135.503 17.832 134.305 16.8164 133.484C15.8008 132.664 14.3685 132.254 12.5195 132.254H8.16406V142.273C8.32031 142.299 9.57031 142.312 11.9141 142.312ZM27.4219 157V128.387H32.7148V152.781H44.6875L44.5312 157H27.4219ZM45.2148 157L55.7422 128.367H61.5039L71.875 157H66.4453L63.6133 148.914H53.5938L50.7422 157H45.2148ZM54.9219 144.969H62.2656C59.9219 137.456 58.7174 133.576 58.6523 133.328L54.9219 144.969ZM74.7266 157V128.387H80.3516C81.3672 129.975 83.431 133.178 86.543 137.996C89.6549 142.814 91.5495 145.743 92.2266 146.785C92.4219 147.085 92.7539 147.592 93.2227 148.309C93.7044 149.012 94.043 149.513 94.2383 149.812C94.1471 145.346 94.1016 143.029 94.1016 142.859V128.387H98.9258V157H93.2227L80.3125 136.883L79.375 135.34C79.4792 138.777 79.5312 141.193 79.5312 142.586V157H74.7266ZM105.078 157V128.387H110.703C111.719 129.975 113.783 133.178 116.895 137.996C120.007 142.814 121.901 145.743 122.578 146.785C122.773 147.085 123.105 147.592 123.574 148.309C124.056 149.012 124.395 149.513 124.59 149.812C124.499 145.346 124.453 143.029 124.453 142.859V128.387H129.277V157H123.574L110.664 136.883L109.727 135.34C109.831 138.777 109.883 141.193 109.883 142.586V157H105.078ZM135.43 157V128.387H152.773L152.559 132.586H140.723V139.969H151.973V144.168H140.723V152.781H152.988L152.812 157H135.43ZM157.793 157V128.309H168.398C169.844 128.309 171.094 128.374 172.148 128.504C173.216 128.634 174.225 128.875 175.176 129.227C176.139 129.565 176.914 130.027 177.5 130.613C178.099 131.199 178.568 131.967 178.906 132.918C179.258 133.855 179.434 134.969 179.434 136.258C179.434 140.06 177.708 142.56 174.258 143.758C174.961 144.552 175.833 146.023 176.875 148.172L181.133 157H175.352L172.012 149.52C170.749 146.837 169.967 145.249 169.668 144.754C169.447 144.741 168.711 144.734 167.461 144.734L163.027 144.695V157H157.793ZM168.867 140.906C170.898 140.906 172.357 140.548 173.242 139.832C174.128 139.103 174.57 137.938 174.57 136.336C174.57 134.93 174.121 133.895 173.223 133.23C172.324 132.566 170.951 132.234 169.102 132.234H163.027V140.887C163.223 140.887 164.193 140.893 165.938 140.906C167.682 140.906 168.659 140.906 168.867 140.906Z" fill="black"/>
<path d="M0 5H94V60" stroke="black" stroke-width="10"/>
<path d="M94 55H156V110" stroke="black" stroke-width="10"/>
<path d="M152 105H214V160" stroke="black" stroke-width="10"/>
<line x1="210" y1="155" x2="291.006" y2="155" stroke="black" stroke-width="10"/>
<path d="M283.99 141.5L306.49 154.49L283.99 167.481L283.99 141.5Z" fill="black"/>
</svg>
